<?xml version="1.0" encoding="UTF-8"?>
<svg version="1.1" xmlns="http://www.w3.org/2000/svg" width="1200" height="675">
<path d="M0 0 C396 0 792 0 1200 0 C1200 222.75 1200 445.5 1200 675 C804 675 408 675 0 675 C0 452.25 0 229.5 0 0 Z " fill="#313131" transform="translate(0,0)"/>
<path d="M0 0 C25.13052079 -2.661162 25.13052079 -2.661162 32.55175781 1.39453125 C36.74143281 5.11598423 39.35515091 9.70911272 41.83398438 14.68457031 C42.88895357 16.77948821 44.04080562 18.69131997 45.328125 20.6484375 C51.37757033 30.26905334 54.74729962 41.24060354 58.375 51.9375 C58.6344339 52.69310211 58.8938678 53.44870422 59.16116333 54.22720337 C62.72834389 64.70585837 65.17376084 75.02899697 66.71456909 85.99084473 C66.99563214 87.9692545 67.30728018 89.94324134 67.61938477 91.91699219 C69.26828513 103.22333261 69 113.24304942 69 125 C102.99 125 136.98 125 172 125 C172 131.93 172 138.86 172 146 C138.01 146 104.02 146 69 146 C69.33 166.13 69.66 186.26 70 207 C73.96 201.39 77.92 195.78 82 190 C82.66 190 83.32 190 84 190 C84.3403125 189.16082031 84.3403125 189.16082031 84.6875 188.3046875 C89.61075739 179.65968197 100.63335062 172.12221646 110 169 C124.21765519 167.6747858 134.16534785 171.73960241 145.2421875 180.48828125 C155.43072769 189.76764576 161.67180848 202.78300923 165 216 C165.17200928 216.61633301 165.34401855 217.23266602 165.52124023 217.86767578 C170.09998539 238.26072025 162.51079874 259.00332497 152.0546875 276.19921875 C150.15266577 278.92491935 148.14633778 281.46238294 146 284 C145.57380371 284.51755859 145.14760742 285.03511719 144.70849609 285.56835938 C135.32591444 296.86055289 122.69784932 307.97940421 107.66796875 310.37109375 C100.32095487 310.7841286 95.61529222 308.30334336 90.18359375 303.51953125 C73.11009469 287.33028408 73.11009469 287.33028408 70 278 C69.34 278 68.68 278 68 278 C68 288.89 68 299.78 68 311 C63 310 63 310 45 300 C45 249.18 45 198.36 45 146 C13.32 146 -18.36 146 -51 146 C-50.67 154.91 -50.34 163.82 -50 173 C-43.93112879 171.78622576 -39.40962997 170.86746679 -33.875 168.875 C-27.14532867 166.90047006 -20.74690744 166.59354028 -13.75 166.5625 C-12.74437012 166.5526709 -11.73874023 166.5428418 -10.70263672 166.53271484 C1.17073145 166.66748412 10.19127806 169.88487821 19 178 C29.19859296 190.18341229 30.17429634 207.11709827 30.11352539 222.31494141 C30.11367142 223.29175873 30.11381744 224.26857605 30.1139679 225.2749939 C30.11327755 228.46720693 30.10552673 231.65935981 30.09765625 234.8515625 C30.09578895 237.07929452 30.09436652 239.30702695 30.09336853 241.53475952 C30.08956796 247.3708003 30.07975891 253.20681582 30.06866455 259.04284668 C30.05839731 265.00902973 30.05385957 270.9752169 30.04882812 276.94140625 C30.03813424 288.62761521 30.02108765 300.3138055 30 312 C24.83208521 311.03707411 21.26133999 309.10469549 16.8125 306.375 C16.08869141 305.96121094 15.36488281 305.54742187 14.61914062 305.12109375 C10.98955132 302.89944746 8.71673108 301.36414937 7.51171875 297.1640625 C7.34285156 296.11992187 7.17398437 295.07578125 7 294 C5.97261719 294.67546875 4.94523437 295.3509375 3.88671875 296.046875 C-3.79463673 301.02274216 -11.07932744 305.59127837 -20 308 C-20.76957031 308.22171875 -21.53914063 308.4434375 -22.33203125 308.671875 C-36.37679623 312.11901466 -52.418025 310.9902887 -64.91015625 303.4453125 C-68.56461623 300.91792896 -71.82384678 298.10197554 -75 295 C-75.53496094 294.48953125 -76.06992187 293.9790625 -76.62109375 293.453125 C-83.51118486 286.22300342 -87.35108715 277.26903873 -87.5625 267.3125 C-86.85561344 252.01233312 -79.62383684 239.8397058 -69 229 C-64.60171674 225.27275194 -59.85157592 222.10106704 -55 219 C-54.30261719 218.54753906 -53.60523438 218.09507812 -52.88671875 217.62890625 C-39.81867062 210.18214712 -22.6368659 208.9534908 -8.4375 212.8125 C-4.04367658 214.16325137 -0.0698193 215.86410987 4 218 C4 218.66 4 219.32 4 220 C4.99 220.33 5.98 220.66 7 221 C8.21493455 210.20204832 8.21493455 210.20204832 4.25 200.6875 C2.72510432 199.23101437 2.72510432 199.23101437 1 198 C0.3709375 197.4740625 -0.258125 196.948125 -0.90625 196.40625 C-3.238483 194.83982485 -4.99893224 194.32503969 -7.75 193.8125 C-8.54921875 193.65394531 -9.3484375 193.49539063 -10.171875 193.33203125 C-26.50029558 191.41502055 -43.13745282 195.51359625 -58 202 C-58.95003906 202.39832031 -59.90007812 202.79664063 -60.87890625 203.20703125 C-64.16720178 204.61630076 -67.01172875 206.00781917 -70 208 C-71.32 208 -72.64 208 -74 208 C-74.13592021 206.10617836 -74.2324094 204.20950296 -74.3125 202.3125 C-74.37050781 201.25675781 -74.42851563 200.20101562 -74.48828125 199.11328125 C-74 196 -74 196 -71.51367188 193.95117188 C-67.88066761 189.68584985 -68.27064954 186.10788386 -68.29296875 180.66796875 C-68.27784744 179.67622147 -68.26272614 178.68447418 -68.24714661 177.66267395 C-68.20425798 174.50405155 -68.19543025 171.34638461 -68.1875 168.1875 C-68.16435668 166.04229229 -68.13899169 163.89710731 -68.11132812 161.75195312 C-68.04429189 156.50078145 -68.02334344 151.25227385 -68 146 C-75.26 146 -82.52 146 -90 146 C-89.98428955 149.43132324 -89.9685791 152.86264648 -89.95239258 156.39794922 C-89.90261397 167.75336729 -89.86936485 179.10879398 -89.84456348 190.46429253 C-89.82912975 197.34702004 -89.80810759 204.2296438 -89.77368164 211.11230469 C-89.74045545 217.7582996 -89.7231307 224.4042153 -89.71536827 231.05029678 C-89.70983855 233.58193785 -89.69904041 236.11357323 -89.68280983 238.6451683 C-89.66093429 242.19960873 -89.65803738 245.75360822 -89.65942383 249.30810547 C-89.64324509 250.86717873 -89.64324509 250.86717873 -89.6267395 252.45774841 C-89.68563951 266.47400912 -95.25115819 279.83370149 -105 290 C-105.66 290 -106.32 290 -107 290 C-107.24492188 290.59296875 -107.48984375 291.1859375 -107.7421875 291.796875 C-112.72390663 300.52261907 -128.72754484 306.90918161 -138 310 C-152.67406838 311.3813552 -163.52269851 305.40251825 -175 297 C-177.9140625 294.33984375 -177.9140625 294.33984375 -180 292 C-180 291.34 -180 290.68 -180 290 C-180.99 290 -181.98 290 -183 290 C-183.1959375 290.556875 -183.391875 291.11375 -183.59375 291.6875 C-185.58288875 294.95852817 -188.41487666 296.84520751 -191.5 299 C-192.1285791 299.44279297 -192.7571582 299.88558594 -193.40478516 300.34179688 C-198.35215512 303.73672931 -203.23670651 306.2578445 -209 308 C-209.66128906 308.22171875 -210.32257813 308.4434375 -211.00390625 308.671875 C-220.27472981 311.4437576 -229.04441402 310.26364088 -238 307 C-238 306.34 -238 305.68 -238 305 C-238.94875 304.835 -239.8975 304.67 -240.875 304.5 C-250.913867 301.56525057 -258.05025431 292.05045316 -264 284 C-264.33 283.34 -264.66 282.68 -265 282 C-268.12146523 283.35910687 -270.61765035 285.19571548 -273.26123047 287.32519531 C-290.38136508 301.11454428 -308.12562542 309.11519583 -330.25 309.3125 C-331.31863281 309.34150391 -332.38726562 309.37050781 -333.48828125 309.40039062 C-348.98531358 309.52278517 -361.34588612 302.09001425 -372.45703125 291.703125 C-380.26626157 283.40206911 -386.40645782 273.93631038 -391.5625 263.8046875 C-392.91891195 261.04785949 -392.91891195 261.04785949 -394.43432617 258.76025391 C-396.2298772 255.59473076 -397.33890342 252.48461725 -398.48828125 249.03125 C-398.82415253 248.02779037 -398.82415253 248.02779037 -399.16680908 247.00405884 C-399.88895964 244.83826405 -400.60142171 242.66945314 -401.3125 240.5 C-401.55644501 239.76134705 -401.80039001 239.02269409 -402.05172729 238.26165771 C-413.14429763 204.66180879 -413.14429763 204.66180879 -415 191 C-412.9511462 189.2931218 -410.88868744 187.61054425 -408.8125 185.9375 C-408.23435547 185.45216797 -407.65621094 184.96683594 -407.06054688 184.46679688 C-402.68720137 180.98294537 -402.68720137 180.98294537 -399.32421875 181.06640625 C-398.55722656 181.37449219 -397.79023438 181.68257812 -397 182 C-396.31526611 182.25716797 -395.63053223 182.51433594 -394.92504883 182.77929688 C-393 184 -393 184 -392.2421875 186.01538086 C-392.12101562 186.82370361 -391.99984375 187.63202637 -391.875 188.46484375 C-391.72546875 189.34720703 -391.5759375 190.22957031 -391.421875 191.13867188 C-391.28265625 192.06228516 -391.1434375 192.98589844 -391 193.9375 C-390.72390157 195.76153914 -390.43280316 197.58338626 -390.125 199.40234375 C-390.00382812 200.21179443 -389.88265625 201.02124512 -389.7578125 201.85522461 C-388.77564941 204.63496132 -387.50452362 205.51695347 -385 207 C-382.73496998 207.29662678 -382.73496998 207.29662678 -380.4375 206.9375 C-379.67308594 206.86402344 -378.90867187 206.79054688 -378.12109375 206.71484375 C-375.266235 205.75270903 -374.55232669 204.55956312 -373 202 C-372.53124141 199.38100916 -372.53124141 199.38100916 -372.56762695 196.49707031 C-372.54783279 195.39623108 -372.52803864 194.29539185 -372.50764465 193.16119385 C-372.50125473 191.97878113 -372.49486481 190.79636841 -372.48828125 189.578125 C-372.47033005 188.36300232 -372.45237885 187.14787964 -372.43388367 185.89593506 C-372.37969142 182.01399203 -372.3458553 178.13217259 -372.3125 174.25 C-372.27933492 171.61847235 -372.24484603 168.98696103 -372.20898438 166.35546875 C-372.12146728 159.90362714 -372.06147117 153.45235295 -372 147 C-388.5 147 -405 147 -422 147 C-422 139.74 -422 132.48 -422 125 C-268.22 125 -114.44 125 44 125 C43.18766769 107.79314004 43.18766769 107.79314004 40.5625 91.0625 C40.34529297 89.95455078 40.12808594 88.84660156 39.90429688 87.70507812 C38.93932631 82.90920338 37.88254195 78.5238783 36 74 C35.65348809 72.57031752 35.33981892 71.13219952 35.0625 69.6875 C33.63578671 63.00738508 31.13848318 57.14528086 28.015625 51.09765625 C26.97731214 48.95314085 26.14352462 46.79493433 25.3125 44.5625 C19.66301395 30.22995174 11.47652472 16.119577 1.70703125 4.203125 C0 2 0 2 0 0 Z " fill="#EEEEEE" transform="translate(730,166)"/>
<path d="M0 0 C77.88 0 155.76 0 236 0 C236 114.42857143 236 114.42857143 224.5 128.1875 C222.76171875 129.6875 222.76171875 129.6875 221 131 C220.40832031 131.45375 219.81664062 131.9075 219.20703125 132.375 C209.44100018 139.14074524 197.73551258 141.79944526 186 140 C182.55929473 138.42528568 179.79278017 136.54301934 177 134 C177.55451703 130.34018763 178.700366 127.24801581 180.20214844 123.87402344 C181.55604662 120.69393701 182.59388087 117.42140244 183.625 114.125 C183.84373779 113.42826172 184.06247559 112.73152344 184.2878418 112.01367188 C185.81149777 106.99896029 186.71871206 102.25070829 187 97 C186.28585937 96.73832031 185.57171875 96.47664063 184.8359375 96.20703125 C181.86938853 94.94440917 179.33148835 93.4362482 176.625 91.6875 C175.66851563 91.07003906 174.71203125 90.45257813 173.7265625 89.81640625 C171.4458022 88.29698857 169.21319501 86.74016146 167 85.125 C164.15120094 82.88911931 164.15120094 82.88911931 161 82 C160.94392578 83.19882812 160.94392578 83.19882812 160.88671875 84.421875 C159.75608308 103.31014143 153.21038478 122.54444635 140.4375 136.875 C139.633125 137.57625 138.82875 138.2775 138 139 C137.154375 139.825 136.30875 140.65 135.4375 141.5 C127.81615671 147.60871027 118.8738588 149.95367601 109.2265625 149.6328125 C104.21754076 148.65041356 100.98271872 146.09429091 98 142 C98 141.34 98 140.68 98 140 C97.34 140 96.68 140 96 140 C90.30977513 125.79984062 89.15269295 107.70399736 94.125 93.125 C95.02979571 91.05904979 95.98488253 89.01403626 97 87 C97.4228125 86.07960938 97.845625 85.15921875 98.28125 84.2109375 C104.23265976 72.20431432 113.46165082 62.24212715 123 53 C125.5775972 50.41554922 125.5775972 50.41554922 127 48 C126.60348637 44.2965627 124.69374204 41.92498938 122.5 39 C121.7884375 38.04480469 121.076875 37.08960938 120.34375 36.10546875 C119.18359375 34.56826172 119.18359375 34.56826172 118 33 C117.15568545 31.87151592 116.31194291 30.74260366 115.46875 29.61328125 C113.31920116 26.73712435 111.16159646 23.86711752 109 21 C100.62339939 24.67394764 95.68914391 33.67269859 90.75 41 C90.24275391 41.74701172 89.73550781 42.49402344 89.21289062 43.26367188 C85.88351365 48.29951948 83.27613468 53.41042109 81 59 C80.34 59 79.68 59 79 59 C78.74605469 59.69222656 78.49210937 60.38445312 78.23046875 61.09765625 C74.1962495 70.61329086 68.67802723 79.23290771 59.5625 84.375 C54.09480264 85.70858472 47.92766846 85.84709733 43 83 C37.84420816 77.2320429 37.46809502 70.255616 37.3125 62.875 C37.2810791 62.02824707 37.2496582 61.18149414 37.21728516 60.30908203 C37.26585363 54.51587931 38.61780119 50.99553016 42.37939453 46.56616211 C46.15983374 42.9127247 49.86723169 42.74072014 54.9375 42.8125 C55.98679687 42.82667969 57.03609375 42.84085937 58.1171875 42.85546875 C61 43 61 43 64.5625 43.625 C67.25194019 44.31937318 67.25194019 44.31937318 70 42 C70.48937042 36.42117723 70.34950543 30.17983988 68 25 C65.05179416 23.37692014 65.05179416 23.37692014 62 23 C61.67 22.67 61.34 22.34 61 22 C48.605632 19.57501496 40.46323484 21.2235297 29.875 28 C21.37105624 35.68019992 16.16598706 47.83791935 15.56640625 59.1484375 C15.54290972 60.89046703 15.54202595 62.63293232 15.5625 64.375 C15.57079834 65.2932959 15.57909668 66.2115918 15.58764648 67.15771484 C15.88339439 79.07393487 19.69531995 88.54289683 27 98 C27.99 98.66 28.98 99.32 30 100 C30 100.66 30 101.32 30 102 C30.9590625 102.37125 30.9590625 102.37125 31.9375 102.75 C35 104 35 104 36.87890625 105.0234375 C43.46599643 108.44435726 49.67044936 109.26794682 57 108 C60.93191082 106.55556331 64.56249161 104.59326852 68.19921875 102.53125 C71 101 71 101 73 101 C74.79657811 110.9465097 74.79657811 110.9465097 73.22265625 115.00390625 C71.64937863 116.98843578 69.99101271 118.4259533 68 120 C67.02417969 120.77988281 66.04835938 121.55976563 65.04296875 122.36328125 C56.64207488 128.79952946 47.60810685 133.61999152 38 138 C37.21882813 138.39316406 36.43765625 138.78632813 35.6328125 139.19140625 C25.66026633 142.2541912 12.66981609 141.09392464 3.46875 136.48046875 C-0.28994051 134.2264439 -3.70785225 131.89791998 -7 129 C-7.65484375 128.44957031 -8.3096875 127.89914062 -8.984375 127.33203125 C-15.32913931 121.56518151 -19.002042 114.44565942 -23 107 C-23.91610501 105.47882828 -24.8326851 103.95794243 -25.75 102.4375 C-29.096809 96.4132438 -32 88.93453488 -32 82 C-31.31035156 81.90203125 -30.62070312 81.8040625 -29.91015625 81.703125 C-20.97776464 80.28178422 -12.87015536 78.3376942 -7 71 C6.44940498 50.36739009 -0.42055178 23.55089968 0 0 Z " fill="#323232" transform="translate(381,312)"/>
<path d="M0 0 C0 0.66 0 1.32 0 2 C0.87785156 2.2475 1.75570312 2.495 2.66015625 2.75 C12.26374764 6.3443266 18.78206725 14.51758169 24 23 C24.53367187 23.80308594 25.06734375 24.60617187 25.6171875 25.43359375 C34.03552577 38.52180623 36.15769529 52.15706248 32.875 67.3125 C29.80107576 77.89886527 24.00431432 86.80707951 15.6875 94 C10.22839039 96.0312966 5.39155727 95.88542387 -0.0703125 93.86328125 C-20.59311707 84.06479937 -34.47676291 61.91987856 -42 41 C-47.24837411 24.87999381 -47.24837411 24.87999381 -43.96875 17.76171875 C-32.82704722 -0.15785322 -19.93826676 -6.36811562 0 0 Z " fill="#323232" transform="translate(847,363)"/>
<path d="M0 0 C3.16106552 2.21947154 4.85394883 3.78092324 7 7 C7.25299997 13.19849924 4.49802194 16.75802698 0.56640625 21.37890625 C-13.69890982 35.94820166 -31.90727083 44.99636491 -52.36450195 45.53369141 C-53.94751099 45.54795166 -53.94751099 45.54795166 -55.5625 45.5625 C-57.07880005 45.58449463 -57.07880005 45.58449463 -58.62573242 45.60693359 C-64.85857842 45.52103468 -69.84690404 44.67694457 -75 41 C-77.64245797 37.96117333 -78.9008897 36.15471366 -79.24609375 32.1328125 C-78.40355049 21.40710305 -68.79690218 12.34591138 -61.2578125 5.515625 C-43.02157258 -9.94224041 -20.96725942 -11.68890601 0 0 Z " fill="#323232" transform="translate(731,410)"/>
<path d="M0 0 C3.6217647 1.31700535 6.33301187 3.19501433 8.8125 6.1875 C12.26574406 14.36623593 12.33682434 22.57033324 12.3125 31.3125 C12.32861328 32.45912109 12.34472656 33.60574219 12.36132812 34.78710938 C12.36624738 43.47942661 12.13381891 53.61620756 6.4375 60.6875 C2.35859936 64.55722625 -0.83192697 64.40742579 -6.30078125 64.3359375 C-9 64 -9 64 -12 62 C-18.24863831 52.62704254 -18.20644825 42.76032207 -18.25 31.8125 C-18.270625 30.53568359 -18.29125 29.25886719 -18.3125 27.94335938 C-18.34854107 19.18087326 -18.12034565 10.54757289 -12.4375 3.4375 C-8.60958452 -0.39041548 -5.26258239 -0.68394573 0 0 Z " fill="#333333" transform="translate(408,219)"/>
<path d="M0 0 C17.36 0 17.36 0 23.8125 5.5625 C26.63794673 8.98277763 26.23317192 13.09141137 26.3125 17.3125 C26.34988281 18.60800781 26.38726562 19.90351563 26.42578125 21.23828125 C25.86498935 26.1928005 23.95210503 29.31715084 20.1875 32.5625 C18.75715263 33.95188064 18.75715263 33.95188064 19.17578125 36.02734375 C20.34049634 40.22804603 22.16741688 44.0528979 24 48 C28.42268041 57.5257732 28.42268041 57.5257732 29 62 C27.02 62 25.04 62 23 62 C21.32442019 58.23306487 19.66108133 54.46084826 18 50.6875 C17.52304687 49.61564453 17.04609375 48.54378906 16.5546875 47.43945312 C16.10351562 46.41142578 15.65234375 45.38339844 15.1875 44.32421875 C14.76855469 43.37635498 14.34960938 42.42849121 13.91796875 41.4519043 C13 39 13 39 13 36 C10.36 36 7.72 36 5 36 C5 44.58 5 53.16 5 62 C3.35 62 1.7 62 0 62 C0 41.54 0 21.08 0 0 Z " fill="#E4E4E4" transform="translate(355,220)"/>
<path d="M0 0 C2.54232342 -0.08152344 5.08199202 -0.14073716 7.625 -0.1875 C8.33785156 -0.21263672 9.05070312 -0.23777344 9.78515625 -0.26367188 C15.35857178 -0.34037025 19.58921265 0.6753122 23.75 4.6875 C27.09399889 10.87389795 27.90037533 18.08248226 27 25 C25.39888003 29.80335991 22.97458073 33.79469296 19 37 C16 38 16 38 6 38 C6 46.25 6 54.5 6 63 C4.35 63 2.7 63 1 63 C0 62 0 62 -0.12025452 59.52598572 C-0.11803391 58.42678299 -0.11581329 57.32758026 -0.11352539 56.19506836 C-0.11344986 54.95385727 -0.11337433 53.71264618 -0.11329651 52.43382263 C-0.10818911 51.0691626 -0.1029731 49.70450298 -0.09765625 48.33984375 C-0.095792 46.95121817 -0.09436813 45.56259193 -0.09336853 44.17396545 C-0.08954387 40.51278885 -0.07971403 36.8516517 -0.06866455 33.19049072 C-0.05844932 29.45707737 -0.05387067 25.72365766 -0.04882812 21.99023438 C-0.03809171 14.66013823 -0.02101591 7.33007464 0 0 Z " fill="#DADADA" transform="translate(315,220)"/>
<path d="M0 0 C3.6217647 1.31700535 6.33301187 3.19501433 8.8125 6.1875 C12.26574406 14.36623593 12.33682434 22.57033324 12.3125 31.3125 C12.32861328 32.45912109 12.34472656 33.60574219 12.36132812 34.78710938 C12.36624738 43.47942661 12.13381891 53.61620756 6.4375 60.6875 C2.35859936 64.55722625 -0.83192697 64.40742579 -6.30078125 64.3359375 C-9 64 -9 64 -12 62 C-18.24863831 52.62704254 -18.20644825 42.76032207 -18.25 31.8125 C-18.270625 30.53568359 -18.29125 29.25886719 -18.3125 27.94335938 C-18.34854107 19.18087326 -18.12034565 10.54757289 -12.4375 3.4375 C-8.60958452 -0.39041548 -5.26258239 -0.68394573 0 0 Z M-9.88671875 9.00390625 C-13.56939183 15.60687448 -13.30470835 22.4496682 -13.25 29.8125 C-13.25773437 30.84181641 -13.26546875 31.87113281 -13.2734375 32.93164062 C-13.27405716 46.93829832 -13.27405716 46.93829832 -7 59 C-3.66925632 59.58478294 -3.66925632 59.58478294 0 59 C4.59338233 55.22321897 5.89126526 51.39019354 6.71875 45.58984375 C8.64192824 25.22878112 8.64192824 25.22878112 1.625 6.8125 C-0.84297452 4.8954377 -0.84297452 4.8954377 -3.5 4.3125 C-6.50652588 5.13929462 -7.91400034 6.63278868 -9.88671875 9.00390625 Z " fill="#E6E6E6" transform="translate(408,219)"/>
<path d="M0 0 C4.95 0 9.9 0 15 0 C15.02481094 6.54703499 15.04291249 13.09404229 15.05493164 19.64111328 C15.05994495 21.86605303 15.06675728 24.09098951 15.07543945 26.31591797 C15.08763687 29.52312021 15.09325847 32.7302787 15.09765625 35.9375 C15.10281754 36.92427734 15.10797882 37.91105469 15.11329651 38.92773438 C15.11454273 54.44339193 15.11454273 54.44339193 11.625 58.9375 C11.20476562 59.50339844 10.78453125 60.06929688 10.3515625 60.65234375 C7.6288624 63.36717477 4.25720367 63.21796319 0.625 63.3125 C-3.14816765 63.27760941 -4.72460024 63.15737129 -8.0625 61.25 C-12.97048393 55.55040576 -13.13738564 49.4637925 -13.0625 42.125 C-13.05347656 40.97257812 -13.04445313 39.82015625 -13.03515625 38.6328125 C-13.02355469 37.76398438 -13.01195312 36.89515625 -13 36 C-11.02 36 -9.04 36 -7 36 C-6.96132813 37.75376953 -6.96132813 37.75376953 -6.921875 39.54296875 C-6.86557633 41.09118226 -6.80822938 42.6393579 -6.75 44.1875 C-6.73582031 44.95642578 -6.72164063 45.72535156 -6.70703125 46.51757812 C-6.48987043 51.57742529 -5.73400144 54.27346656 -2 58 C2.19045121 57.58350348 2.19045121 57.58350348 5.8125 55.625 C7.96113805 52.68475846 8.13791388 49.95163363 8.20532227 46.43676758 C8.22526749 45.51603958 8.24521271 44.59531158 8.26576233 43.64668274 C8.28247482 42.65597275 8.29918732 41.66526276 8.31640625 40.64453125 C8.33718735 39.62775803 8.35796844 38.6109848 8.37937927 37.56340027 C8.44480048 34.31316937 8.50372537 31.06285723 8.5625 27.8125 C8.60569227 25.61001762 8.64930679 23.40754347 8.69335938 21.20507812 C8.80047432 15.80346883 8.90176289 10.40177775 9 5 C6.03 5 3.06 5 0 5 C0 3.35 0 1.7 0 0 Z " fill="#BBBBBB" transform="translate(441,220)"/>
<path d="M0 0 C3.75212276 2.01502889 5.63644095 3.45466142 8 7 C8.07905064 9.33199388 8.08798769 11.66832622 8 14 C6.35 14 4.7 14 3 14 C2.731875 13.05125 2.46375 12.1025 2.1875 11.125 C1.25013412 7.74732727 1.25013412 7.74732727 -2 6 C-5.32532793 6.13855533 -7.27582977 6.32755621 -9.75 8.625 C-13.6746312 16.08179928 -13.33401673 23.6211823 -13.3125 31.875 C-13.32861328 33.10347656 -13.34472656 34.33195312 -13.36132812 35.59765625 C-13.36582399 43.98693366 -12.71790919 50.92313621 -8 58 C-4.96133201 58.41137202 -2.07840297 58.13193156 1 58 C1.99 55.03 2.98 52.06 4 49 C5.65 49 7.3 49 9 49 C9.56674779 54.55412833 8.60677654 57.30443742 5.38671875 61.6171875 C2.70468636 64.29166487 -0.70981974 64.30068159 -4.3125 64.5 C-7.31526916 64.45246276 -9.32044571 64.40495888 -11.9140625 62.859375 C-13.6554873 61.01971599 -14.80097789 59.23226303 -16 57 C-16.41121094 56.24332031 -16.82242187 55.48664063 -17.24609375 54.70703125 C-22.81287876 41.66650027 -21.97786909 22.96698869 -17.390625 9.73828125 C-13.57347777 2.22193235 -8.40303384 -1.49086084 0 0 Z " fill="#E1E1E1" transform="translate(527,219)"/>
<path d="M0 0 C8.25 0 16.5 0 25 0 C25 1.32 25 2.64 25 4 C18.4 4 11.8 4 5 4 C5 11.26 5 18.52 5 26 C9.95 26 14.9 26 20 26 C20 27.98 20 29.96 20 32 C15.05 32 10.1 32 5 32 C5 40.25 5 48.5 5 57 C11.93 57 18.86 57 26 57 C26 58.32 26 59.64 26 61 C17.42 61 8.84 61 0 61 C0 40.87 0 20.74 0 0 Z " fill="#F2F2F2" transform="translate(472,221)"/>
<path d="M0 0 C10.89 0 21.78 0 33 0 C33 1.65 33 3.3 33 5 C28.38 5 23.76 5 19 5 C19 23.81 19 42.62 19 62 C17.35 62 15.7 62 14 62 C14 43.19 14 24.38 14 5 C9.38 5 4.76 5 0 5 C0 3.35 0 1.7 0 0 Z " fill="#F7F7F7" transform="translate(544,220)"/>
<path d="M0 0 C9 0 9 0 12 1.875 C15.38437754 5.47090113 15.18882135 7.94369939 15.25 12.8125 C15.28867187 14.64748047 15.28867187 14.64748047 15.328125 16.51953125 C14.97731631 20.24060915 14.22221756 22.0406045 12 25 C7.62922951 28.52089845 6.19323008 28 0 28 C0 18.76 0 9.52 0 0 Z " fill="#303030" transform="translate(321,225)"/>
<path d="M0 0 C10.46428571 0 10.46428571 0 14 3 C16.716355 7.46946354 16.77543758 11.91404176 16 17 C14.48889278 20.33204577 12.59912539 23.40087461 10 26 C6.7 26 3.4 26 0 26 C0 17.42 0 8.84 0 0 Z " fill="#323232" transform="translate(360,225)"/>
<path d="M0 0 C4.95 0 9.9 0 15 0 C15 15.51 15 31.02 15 47 C13.515 47.495 13.515 47.495 12 48 C11.34 47.67 10.68 47.34 10 47 C10 33.14 10 19.28 10 5 C6.7 5 3.4 5 0 5 C0 3.35 0 1.7 0 0 Z " fill="#E4E4E4" transform="translate(441,220)"/>
<path d="M0 0 C3.75212276 2.01502889 5.63644095 3.45466142 8 7 C8.07905064 9.33199388 8.08798769 11.66832622 8 14 C6.35 14 4.7 14 3 14 C2.731875 13.05125 2.46375 12.1025 2.1875 11.125 C1.25013412 7.74732727 1.25013412 7.74732727 -2 6 C-5.32532793 6.13855533 -7.27582977 6.32755621 -9.75 8.625 C-13.49488464 15.74028082 -13.40997757 23.05782374 -13.625 30.9375 C-13.66367187 32.09830078 -13.70234375 33.25910156 -13.7421875 34.45507812 C-13.83595387 37.30323169 -13.92165917 40.15138738 -14 43 C-14.33 43 -14.66 43 -15 43 C-15 35.74 -15 28.48 -15 21 C-16.32 21 -17.64 21 -19 21 C-18.36754078 13.7899649 -17.20268001 7.80534024 -11.8125 2.5625 C-7.73110619 -0.64922972 -5.09687644 -0.80902801 0 0 Z " fill="#D5D5D5" transform="translate(527,219)"/>
<path d="M0 0 C10.89 0 21.78 0 33 0 C33 1.65 33 3.3 33 5 C28.38 5 23.76 5 19 5 C19 23.81 19 42.62 19 62 C18.67 62 18.34 62 18 62 C17.67 43.52 17.34 25.04 17 6 C11.39 5.67 5.78 5.34 0 5 C0 3.35 0 1.7 0 0 Z " fill="#D7D7D7" transform="translate(544,220)"/>
<path d="M0 0 C8.25 0 16.5 0 25 0 C25 0.33 25 0.66 25 1 C21.56296699 1.19682269 18.12536573 1.38085152 14.6875 1.5625 C13.71103516 1.61857422 12.73457031 1.67464844 11.72851562 1.73242188 C10.79072266 1.78076172 9.85292969 1.82910156 8.88671875 1.87890625 C8.02264404 1.9260376 7.15856934 1.97316895 6.26831055 2.02172852 C4 2 4 2 1 1 C1.33 19.15 1.66 37.3 2 56 C2.33 48.41 2.66 40.82 3 33 C3.33 33 3.66 33 4 33 C4 40.92 4 48.84 4 57 C11.26 57 18.52 57 26 57 C26 58.32 26 59.64 26 61 C17.42 61 8.84 61 0 61 C0 40.87 0 20.74 0 0 Z " fill="#F9F9F9" transform="translate(472,221)"/>
<path d="M0 0 C0.66 0 1.32 0 2 0 C4.22617632 7.51334508 5.72186224 15.02121306 2.25 22.375 C-0.12740026 26.53335028 -2.35186905 29.45062302 -7 31 C-8.72795352 31.06802967 -10.45835365 31.08495645 -12.1875 31.0625 C-13.53908203 31.04896484 -13.53908203 31.04896484 -14.91796875 31.03515625 C-15.60503906 31.02355469 -16.29210937 31.01195312 -17 31 C-16.505 29.515 -16.505 29.515 -16 28 C-16.33 27.34 -16.66 26.68 -17 26 C-16.31292969 25.89042969 -15.62585938 25.78085938 -14.91796875 25.66796875 C-14.01691406 25.50941406 -13.11585938 25.35085937 -12.1875 25.1875 C-11.29417969 25.03667969 -10.40085937 24.88585937 -9.48046875 24.73046875 C-6.76353184 23.93036292 -5.70779042 23.22497616 -4 21 C-2.62735281 16.88205844 -2.65049095 12.75342674 -2.48242188 8.44921875 C-2.29228251 4.81145799 -2.06923381 3.10385071 0 0 Z " fill="#DBDBDB" transform="translate(338,227)"/>
<path d="M0 0 C1.98 0 3.96 0 6 0 C6.05607422 1.75376953 6.05607422 1.75376953 6.11328125 3.54296875 C6.1789628 5.09117675 6.24540939 6.63935242 6.3125 8.1875 C6.33505859 8.95642578 6.35761719 9.72535156 6.38085938 10.51757812 C6.59920528 15.14254148 7.13746744 18.17049934 10 22 C9.67 22.33 9.34 22.66 9 23 C9.99 23.99 10.98 24.98 12 26 C10.3125 26.75 10.3125 26.75 8 27 C4.60580544 24.81801778 2.35092242 22.82761353 1 19 C0.12671675 14.65243159 -0.10770252 10.55484736 -0.0625 6.125 C-0.05347656 4.97257812 -0.04445313 3.82015625 -0.03515625 2.6328125 C-0.02355469 1.76398438 -0.01195312 0.89515625 0 0 Z " fill="#E0E0E0" transform="translate(428,256)"/>
<path d="M0 0 C2.87793751 1.29010992 4.96183917 2.57361806 7 5 C8.17629473 8.52888419 8.22181837 11.76331977 8.25 15.4375 C8.27578125 16.75621094 8.3015625 18.07492188 8.328125 19.43359375 C7.99278944 23.07837191 7.50424009 24.42326875 5 27 C4.34 26.01 3.68 25.02 3 24 C2.34 24.99 1.68 25.98 1 27 C0.34 26.67 -0.32 26.34 -1 26 C-0.505 25.21625 -0.01 24.4325 0.5 23.625 C2.8120231 18.03761083 2.96272225 12.71827459 0.9375 7 C-1.72205998 4.25464777 -4.31807781 3.76417253 -8 3 C-8 2.67 -8 2.34 -8 2 C-5.69 2.33 -3.38 2.66 -1 3 C-0.67 2.01 -0.34 1.02 0 0 Z " fill="#E9E9E9" transform="translate(373,222)"/>
<path d="M0 0 C0.33 0 0.66 0 1 0 C1 7.26 1 14.52 1 22 C5.95 22 10.9 22 16 22 C16 23.98 16 25.96 16 28 C11.05 28 6.1 28 1 28 C1 36.25 1 44.5 1 53 C0.34 52.67 -0.32 52.34 -1 52 C-1.66 52.99 -2.32 53.98 -3 55 C-3.0578304 50.54172074 -3.09353855 46.0835372 -3.125 41.625 C-3.14175781 40.35398437 -3.15851563 39.08296875 -3.17578125 37.7734375 C-3.18222656 36.56171875 -3.18867188 35.35 -3.1953125 34.1015625 C-3.20578613 32.98088379 -3.21625977 31.86020508 -3.22705078 30.70556641 C-3 28 -3 28 -1 26 C1.75589777 26.01747927 4.38786676 26.13863271 7.125 26.375 C7.87910156 26.43171875 8.63320313 26.4884375 9.41015625 26.546875 C11.27418096 26.6884465 13.13721137 26.84299959 15 27 C15 25.68 15 24.36 15 23 C10.05 23 5.1 23 0 23 C0 15.41 0 7.82 0 0 Z " fill="#BCBCBC" transform="translate(476,225)"/>
<path d="M0 0 C4.62 0 9.24 0 14 0 C14 0.33 14 0.66 14 1 C9.71 1 5.42 1 1 1 C1.33 12.22 1.66 23.44 2 35 C2.33 35 2.66 35 3 35 C3.33 43.58 3.66 52.16 4 61 C2.68 61 1.36 61 0 61 C0 40.87 0 20.74 0 0 Z " fill="#FBFBFB" transform="translate(356,221)"/>
<path d="M0 0 C2 1.1875 2 1.1875 4 3 C4.59326276 5.68174059 4.43327081 7.31913151 2.94775391 9.65356445 C1.4637694 11.51956734 -0.08818297 13.29443908 -1.6875 15.0625 C-2.21794922 15.67416016 -2.74839844 16.28582031 -3.29492188 16.91601562 C-6.29358147 20.31940228 -9.34479457 23.28063566 -13 26 C-12.67 24.02 -12.34 22.04 -12 20 C-11.01 20 -10.02 20 -9 20 C-10.32 19.34 -11.64 18.68 -13 18 C-12.113125 17.360625 -11.22625 16.72125 -10.3125 16.0625 C-6.31305509 12.75326662 -4.26665152 8.59079058 -2 4 C-1.43539062 2.87271484 -1.43539062 2.87271484 -0.859375 1.72265625 C-0.43398438 0.86994141 -0.43398438 0.86994141 0 0 Z " fill="#E7E7E7" transform="translate(876,437)"/>
<path d="M0 0 C0.33 0 0.66 0 1 0 C1 33 1 66 1 100 C-4.625 98.875 -4.625 98.875 -7 96 C-5.02 96.33 -3.04 96.66 -1 97 C-0.67 64.99 -0.34 32.98 0 0 Z " fill="#DCDCDC" transform="translate(759,378)"/>
<path d="M0 0 C7.23186925 -0.49029622 7.23186925 -0.49029622 10.9375 1.875 C13.76956333 4.79288343 13.99067486 5.4591417 14.0625 9.625 C14.041875 10.73875 14.02125 11.8525 14 13 C12.35 13 10.7 13 9 13 C8.731875 12.05125 8.46375 11.1025 8.1875 10.125 C7.25013412 6.74732727 7.25013412 6.74732727 4 5 C1.04182816 5.30185427 -1.33437658 5.66718829 -4 7 C-4.33 5.68 -4.66 4.36 -5 3 C-3.35 2.67 -1.7 2.34 0 2 C0 1.34 0 0.68 0 0 Z " fill="#EBEBEB" transform="translate(521,220)"/>
<path d="M0 0 C0.66 0.66 1.32 1.32 2 2 C1.75504136 4.53123931 1.404817 5.65995372 -0.5625 7.3125 C-2.3782721 9.07459714 -2.3782721 9.07459714 -2 12.5 C-2 16 -2 16 -3.5 17.71875 C-4.2425 18.35296875 -4.2425 18.35296875 -5 19 C-5.20753906 18.43410156 -5.41507812 17.86820312 -5.62890625 17.28515625 C-6.59506134 14.98497949 -7.52202577 13.01464498 -9 11 C-12.62653665 9.86043273 -12.62653665 9.86043273 -16 10 C-16 9.01 -16 8.02 -16 7 C-14.98679687 6.80083984 -14.98679687 6.80083984 -13.953125 6.59765625 C-12.61507813 6.33275391 -12.61507813 6.33275391 -11.25 6.0625 C-10.36828125 5.88847656 -9.4865625 5.71445313 -8.578125 5.53515625 C-7.30195313 5.27025391 -7.30195313 5.27025391 -6 5 C-5.2575 4.855625 -4.515 4.71125 -3.75 4.5625 C-1.77611718 4.13899973 -1.77611718 4.13899973 -0.75 1.9375 C-0.37875 0.9784375 -0.37875 0.9784375 0 0 Z " fill="#F0F0F0" transform="translate(376,245)"/>
<path d="M0 0 C0.33 0 0.66 0 1 0 C1.19335938 0.73605469 1.38671875 1.47210938 1.5859375 2.23046875 C1.84632813 3.20628906 2.10671875 4.18210937 2.375 5.1875 C2.63023437 6.15042969 2.88546875 7.11335938 3.1484375 8.10546875 C3.94766296 10.82210207 4.9031362 13.39137175 6 16 C3.23735711 16.59732819 0.83967231 17 -2 17 C-2.33 17.99 -2.66 18.98 -3 20 C-3.33 19.01 -3.66 18.02 -4 17 C-4.33 17.33 -4.66 17.66 -5 18 C-6.99958364 18.04080783 -9.00045254 18.04254356 -11 18 C-11 17.67 -11 17.34 -11 17 C-9.35 17 -7.7 17 -6 17 C-6.350625 15.88625 -6.70125 14.7725 -7.0625 13.625 C-8 10 -8 10 -7 8 C-6.21625 8.350625 -5.4325 8.70125 -4.625 9.0625 C-3.75875 9.371875 -2.8925 9.68125 -2 10 C-1.34 9.67 -0.68 9.34 0 9 C0 6.03 0 3.06 0 0 Z " fill="#3E3E3E" transform="translate(390,265)"/>
<path d="M0 0 C0.33 0.66 0.66 1.32 1 2 C1.99 2.33 2.98 2.66 4 3 C4.6875 5.0625 4.6875 5.0625 5 7 C5.66 7 6.32 7 7 7 C7 7.66 7 8.32 7 9 C5.25 10.5078125 5.25 10.5078125 3 12.125 C2.2575 12.66382813 1.515 13.20265625 0.75 13.7578125 C0.1725 14.16773438 -0.405 14.57765625 -1 15 C-1.12375 14.38125 -1.2475 13.7625 -1.375 13.125 C-1.87197356 10.80879168 -1.87197356 10.80879168 -4 9 C-4.66 8.67 -5.32 8.34 -6 8 C-4.02 5.36 -2.04 2.72 0 0 Z " fill="#E4E4E4" transform="translate(812,356)"/>
<path d="M0 0 C0.33 0 0.66 0 1 0 C1 18.48 1 36.96 1 56 C1.66 56 2.32 56 3 56 C2.67 58.64 2.34 61.28 2 64 C0 62 0 62 -0.24050903 59.4057312 C-0.23606781 58.30874908 -0.23162659 57.21176697 -0.22705078 56.08154297 C-0.22689972 54.84040741 -0.22674866 53.59927185 -0.22659302 52.32052612 C-0.216379 50.9610783 -0.205947 49.6016321 -0.1953125 48.2421875 C-0.19158284 46.85499271 -0.18873565 45.46779529 -0.18673706 44.08059692 C-0.17909684 40.42759949 -0.15944516 36.77476083 -0.1373291 33.12182617 C-0.11687896 29.39504138 -0.10773713 25.66823096 -0.09765625 21.94140625 C-0.07619951 14.62753175 -0.04205903 7.31378811 0 0 Z " fill="#242424" transform="translate(761,416)"/>
<path d="M0 0 C-0.26690006 3.20280069 -0.83329016 4.7943912 -2.875 7.3125 C-7.49685119 9.80829964 -11.85386857 9.32444962 -17 9 C-16.67 7.68 -16.34 6.36 -16 5 C-14.14375 5.061875 -14.14375 5.061875 -12.25 5.125 C-8.98362038 5.13658291 -6.7853053 4.8568702 -4 3 C-4 2.34 -4 1.68 -4 1 C-2 0 -2 0 0 0 Z " fill="#F0F0F0" transform="translate(416,274)"/>
<path d="M0 0 C1.8125 0.1875 1.8125 0.1875 4 1 C6.70024001 4.50031113 7.49416388 7.64980938 8 12 C6.02 12.33 4.04 12.66 2 13 C1.81824219 12.36191406 1.63648438 11.72382813 1.44921875 11.06640625 C1.19785156 10.24011719 0.94648438 9.41382813 0.6875 8.5625 C0.44386719 7.73878906 0.20023437 6.91507813 -0.05078125 6.06640625 C-0.36402344 5.38449219 -0.67726563 4.70257813 -1 4 C-1.99 3.67 -2.98 3.34 -4 3 C-2.68 2.67 -1.36 2.34 0 2 C0 1.34 0 0.68 0 0 Z " fill="#E6E6E6" transform="translate(411,222)"/>
<path d="M0 0 C2.80562038 0.97586796 4.07075137 1.69457119 5.875 4 C5.545 4.66 5.215 5.32 4.875 6 C2.4 5.01 2.4 5.01 -0.125 4 C-0.681875 4.825 -1.23875 5.65 -1.8125 6.5 C-4.125 9 -4.125 9 -6.875 9.3125 C-7.98875 9.1578125 -7.98875 9.1578125 -9.125 9 C-8.78593677 5.94843089 -7.86458327 4.66517849 -5.9375 2.1875 C-3.125 0 -3.125 0 0 0 Z " fill="#393939" transform="translate(524.125,224)"/>
<path d="M0 0 C0.33 0 0.66 0 1 0 C1.33 8.58 1.66 17.16 2 26 C0.68 26 -0.64 26 -2 26 C-1.86186975 21.85387186 -1.71321141 17.70818838 -1.5625 13.5625 C-1.52318359 12.37849609 -1.48386719 11.19449219 -1.44335938 9.97460938 C-1.40146484 8.84990234 -1.35957031 7.72519531 -1.31640625 6.56640625 C-1.27974854 5.52427979 -1.24309082 4.48215332 -1.20532227 3.40844727 C-1 1 -1 1 0 0 Z " fill="#F4F4F4" transform="translate(358,256)"/>
<path d="M0 0 C0.99 0.33 1.98 0.66 3 1 C2.67 6.94 2.34 12.88 2 19 C1.01 18.67 0.02 18.34 -1 18 C-1.02684312 15.18743719 -1.04676188 12.37512759 -1.0625 9.5625 C-1.07087891 8.76005859 -1.07925781 7.95761719 -1.08789062 7.13085938 C-1.0965143 5.08704779 -1.0522815 3.04316098 -1 1 C-0.67 0.67 -0.34 0.34 0 0 Z " fill="#F4F4F4" transform="translate(509,239)"/>
<path d="M0 0 C2 2 2 2 2.265625 4.71484375 C2.26046875 5.77832031 2.2553125 6.84179688 2.25 7.9375 C2.25773437 9.52884766 2.25773437 9.52884766 2.265625 11.15234375 C2 14 2 14 0 17 C-0.66 17 -1.32 17 -2 17 C-2.05383848 14.54137599 -2.09359038 12.0839245 -2.125 9.625 C-2.14175781 8.92632812 -2.15851563 8.22765625 -2.17578125 7.5078125 C-2.19344267 5.67102514 -2.10303261 3.83398037 -2 2 C-1.34 1.34 -0.68 0.68 0 0 Z " fill="#F6F6F6" transform="translate(339,229)"/>
<path d="M0 0 C1.98 1.32 3.96 2.64 6 4 C5.01 6.31 4.02 8.62 3 11 C-0.36591866 9.55746343 -2.51047079 7.66735273 -5 5 C-4.01 5 -3.02 5 -2 5 C-1.34 3.35 -0.68 1.7 0 0 Z " fill="#E4E4E4" transform="translate(481,456)"/>
<path d="M0 0 C0.33 0 0.66 0 1 0 C1.33 4.62 1.66 9.24 2 14 C2.99 14 3.98 14 5 14 C5.99 14.33 6.98 14.66 8 15 C8.25 17.8125 8.25 17.8125 8 21 C6 22.875 6 22.875 4 24 C-0.71248522 16.23702211 -0.41732107 8.79851917 0 0 Z " fill="#D8D8D8" transform="translate(643,426)"/>
<path d="M0 0 C2.27521866 2.16687491 4.15794162 4.45620509 6 7 C4.68 7 3.36 7 2 7 C1.87625 7.639375 1.7525 8.27875 1.625 8.9375 C1.41875 9.618125 1.2125 10.29875 1 11 C0.01 11.495 0.01 11.495 -1 12 C-4.03497942 7.62962963 -4.03497942 7.62962963 -3.875 4.75 C-3 3 -3 3 0 2 C0 1.34 0 0.68 0 0 Z " fill="#E7E7E7" transform="translate(652,445)"/>
<path d="M0 0 C2.88461151 1.29310171 5.12852073 2.41557624 7 5 C7.6875 8.6875 7.6875 8.6875 8 12 C7.34 11.01 6.68 10.02 6 9 C5.67 8.67 5.34 8.34 5 8 C4.01 8.66 3.02 9.32 2 10 C1.649375 9.21625 1.29875 8.4325 0.9375 7.625 C-1.61665844 4.16452728 -3.88222494 3.85463256 -8 3 C-8 2.67 -8 2.34 -8 2 C-5.69 2.33 -3.38 2.66 -1 3 C-0.67 2.01 -0.34 1.02 0 0 Z " fill="#DEDEDE" transform="translate(373,222)"/>
<path d="M0 0 C1.98 0 3.96 0 6 0 C6 4.62 6 9.24 6 14 C5.67 14 5.34 14 5 14 C3.72746564 10.35206816 2.67170806 6.8063457 2 3 C1.67 6.3 1.34 9.6 1 13 C0.67 13 0.34 13 0 13 C0 8.71 0 4.42 0 0 Z " fill="#C0C0C0" transform="translate(428,256)"/>
<path d="M0 0 C1.83388686 2.7508303 2.29963883 3.93591989 3 7 C3.350625 7.99 3.70125 8.98 4.0625 10 C5 13 5 13 5 17 C3.68 17 2.36 17 1 17 C-0.53266582 13.93466836 -0.10276471 10.73245728 -0.0625 7.375 C-0.05798828 6.66859375 -0.05347656 5.9621875 -0.04882812 5.234375 C-0.03703875 3.48954725 -0.01910324 1.744763 0 0 Z " fill="#F4F4F4" transform="translate(429,257)"/>
<path d="M0 0 C3.87467873 1.25665256 6.10609704 2.31187319 8 6 C8.1875 9.75 8.1875 9.75 8 13 C6.35 13 4.7 13 3 13 C3 11.68 3 10.36 3 9 C3.66 8.67 4.32 8.34 5 8 C3.63016497 4.83884224 3.0109362 4.0072908 0 2 C0 1.34 0 0.68 0 0 Z " fill="#E2E2E2" transform="translate(527,220)"/>
<path d="M0 0 C0 1.32 0 2.64 0 4 C-0.68707031 3.97679687 -1.37414062 3.95359375 -2.08203125 3.9296875 C-2.98308594 3.91164062 -3.88414062 3.89359375 -4.8125 3.875 C-5.70582031 3.85179687 -6.59914063 3.82859375 -7.51953125 3.8046875 C-10.25402714 3.81714173 -10.25402714 3.81714173 -13 6 C-13 4.68 -13 3.36 -13 2 C-8.7920942 -0.80527053 -4.85771358 -1.68151624 0 0 Z " fill="#EDEDED" transform="translate(412,221)"/>
<path d="M0 0 C2.38672669 2.96283313 4.7353371 5.94270509 7 9 C6.67 9.66 6.34 10.32 6 11 C0.25 9.125 0.25 9.125 -2 8 C-1.125 2.25 -1.125 2.25 0 0 Z " fill="#E3E3E3" transform="translate(814,423)"/>
<path d="M0 0 C0.33 0 0.66 0 1 0 C1.4988096 2.22285053 1.99405539 4.44627144 2.48046875 6.671875 C2.87370211 8.43403352 3.30334922 10.18811776 3.75 11.9375 C3.8325 12.618125 3.915 13.29875 4 14 C3.34 14.66 2.68 15.32 2 16 C-0.2792203 14.21626237 -0.9813064 13.06327064 -1.8125 10.25 C-2.03226627 6.44071796 -1.22126982 3.59197007 0 0 Z " fill="#F4F4F4" transform="translate(394,263)"/>
<path d="M0 0 C10.125 0 10.125 0 14 3 C13.67 3.66 13.34 4.32 13 5 C10 4 10 4 8 2 C5.69 1.67 3.38 1.34 1 1 C1 8.92 1 16.84 1 25 C0.67 25 0.34 25 0 25 C0 16.75 0 8.5 0 0 Z " fill="#3D3D3D" transform="translate(360,225)"/>
<path d="M0 0 C10.23 0 20.46 0 31 0 C30.67 0.99 30.34 1.98 30 3 C30 2.34 30 1.68 30 1 C22.08 1 14.16 1 6 1 C6 1.66 6 2.32 6 3 C4.02 3 2.04 3 0 3 C0 2.01 0 1.02 0 0 Z " fill="#FBFBFB" transform="translate(545,221)"/>
<path d="M0 0 C2.43840236 2.43840236 3.62292893 4.85240898 5 8 C4.67 8.66 4.34 9.32 4 10 C3.34 9.67 2.68 9.34 2 9 C1.67 9.66 1.34 10.32 1 11 C0.34 11 -0.32 11 -1 11 C-2.1875 8.3125 -2.1875 8.3125 -3 5 C-1.625 2.125 -1.625 2.125 0 0 Z " fill="#E2E2E2" transform="translate(374,259)"/>
<path d="M0 0 C-0.33 1.32 -0.66 2.64 -1 4 C-1.91523438 3.98839844 -2.83046875 3.97679687 -3.7734375 3.96484375 C-4.96195312 3.95582031 -6.15046875 3.94679687 -7.375 3.9375 C-9.15003906 3.92009766 -9.15003906 3.92009766 -10.9609375 3.90234375 C-13.91921521 3.78533407 -13.91921521 3.78533407 -16 5 C-16 3.68 -16 2.36 -16 1 C-13.89594609 0.83191581 -11.79175242 0.66558052 -9.6875 0.5 C-8.51574219 0.4071875 -7.34398437 0.314375 -6.13671875 0.21875 C-4.094806 0.07635011 -2.0468721 0 0 0 Z " fill="#F1F1F1" transform="translate(373,221)"/>
<path d="M0 0 C0.66 0 1.32 0 2 0 C2.66 1.32 3.32 2.64 4 4 C3.01 4 2.02 4 1 4 C1 13.9 1 23.8 1 34 C0.01 33.67 -0.98 33.34 -2 33 C-1.34 33 -0.68 33 0 33 C0 22.11 0 11.22 0 0 Z " fill="#464646" transform="translate(798,444)"/>
<path d="M0 0 C0.66 0.66 1.32 1.32 2 2 C2.99 2 3.98 2 5 2 C5 4.97 5 7.94 5 11 C4.01 11.495 4.01 11.495 3 12 C3 11.34 3 10.68 3 10 C2.34 10 1.68 10 1 10 C-0.60725635 6.78548731 -0.05748185 3.56387464 0 0 Z " fill="#F1F1F1" transform="translate(414,232)"/>
<path d="M0 0 C1.231394 2.46278801 1.07159196 4.2795055 1 7 C1.66 6.67 2.32 6.34 3 6 C3.66 6.33 4.32 6.66 5 7 C5.625 9.0625 5.625 9.0625 6 11 C3 13 3 13 -1 13 C-1.02686553 11.02090602 -1.04633375 9.04171029 -1.0625 7.0625 C-1.07410156 5.96035156 -1.08570313 4.85820312 -1.09765625 3.72265625 C-1 1 -1 1 0 0 Z " fill="#DDDDDD" transform="translate(657,361)"/>
<path d="M0 0 C2 1.1875 2 1.1875 4 3 C4.4375 5.5 4.4375 5.5 4 8 C2.5 9.8125 2.5 9.8125 1 11 C1 10.34 1 9.68 1 9 C0.34 9 -0.32 9 -1 9 C-1.80967438 6.08517222 -2.21845993 4.53886783 -1.0625 1.6875 C-0.711875 1.130625 -0.36125 0.57375 0 0 Z " fill="#E0E0E0" transform="translate(876,437)"/>
<path d="M0 0 C4.875 4.625 4.875 4.625 6 8 C5.34 8.66 4.68 9.32 4 10 C4 9.34 4 8.68 4 8 C3.21625 7.71125 2.4325 7.4225 1.625 7.125 C-1 6 -1 6 -3 4 C-2.67 3.34 -2.34 2.68 -2 2 C-1.34 2 -0.68 2 0 2 C0 1.34 0 0.68 0 0 Z " fill="#3C3C3C" transform="translate(349,447)"/>
<path d="M0 0 C0.99 0.33 1.98 0.66 3 1 C3 3.64 3 6.28 3 9 C2.01 8.67 1.02 8.34 0 8 C-2.16715557 8.87483915 -2.16715557 8.87483915 -4 10 C-3.52449439 8.51965236 -3.04448784 7.04074979 -2.5625 5.5625 C-2.29566406 4.73878906 -2.02882813 3.91507812 -1.75390625 3.06640625 C-1 1 -1 1 0 0 Z " fill="#DEDEDE" transform="translate(452,266)"/>
<path d="M0 0 C0 3 0 3 -2 6 C-4.625 7.1875 -4.625 7.1875 -7 8 C-7.6875 6.1875 -7.6875 6.1875 -8 4 C-6.35495989 1.53243984 -5.19700648 1.05039701 -2.3125 0.3125 C-1.549375 0.209375 -0.78625 0.10625 0 0 Z " fill="#3A3A3A" transform="translate(381,250)"/>
<path d="M0 0 C-0.99 1.485 -0.99 1.485 -2 3 C-2.66 3 -3.32 3 -4 3 C-4.33 3.99 -4.66 4.98 -5 6 C-5.33 5.67 -5.66 5.34 -6 5 C-8.32817964 4.63239269 -10.6618385 4.29758419 -13 4 C-13 3.01 -13 2.02 -13 1 C-11.39796533 0.63631108 -9.79325797 0.28438048 -8.1875 -0.0625 C-7.29417969 -0.25972656 -6.40085937 -0.45695313 -5.48046875 -0.66015625 C-3 -1 -3 -1 0 0 Z " fill="#F7F7F7" transform="translate(373,251)"/>
<path d="M0 0 C0.66 0.33 1.32 0.66 2 1 C1.34 2.98 0.68 4.96 0 7 C-1.98 7 -3.96 7 -6 7 C-6.66 5.68 -7.32 4.36 -8 3 C-6.865625 2.87625 -5.73125 2.7525 -4.5625 2.625 C-3.386875 2.41875 -2.21125 2.2125 -1 2 C-0.67 1.34 -0.34 0.68 0 0 Z " fill="#F8F8F8" transform="translate(528,276)"/>
<path d="M0 0 C0 0.66 0 1.32 0 2 C-1.794375 2.4021875 -1.794375 2.4021875 -3.625 2.8125 C-7.37855376 3.74087006 -10.60088806 5.13048843 -14 7 C-11.07013018 -0.08051873 -7.02367934 -0.35118397 0 0 Z " fill="#D4D4D4" transform="translate(408,219)"/>
<path d="M0 0 C2.52259061 1.97420135 2.9929808 2.96745642 3.6875 6.1875 C3.790625 7.115625 3.89375 8.04375 4 9 C2.02 9.33 0.04 9.66 -2 10 C-2.33 8.35 -2.66 6.7 -3 5 C-2.34 5 -1.68 5 -1 5 C-0.67 3.35 -0.34 1.7 0 0 Z " fill="#DADADA" transform="translate(415,225)"/>
<path d="M0 0 C0.66 0.33 1.32 0.66 2 1 C1.67 2.65 1.34 4.3 1 6 C-1.3125 6.625 -1.3125 6.625 -4 7 C-4.99 6.34 -5.98 5.68 -7 5 C-6.67 4.01 -6.34 3.02 -6 2 C-4.35 2 -2.7 2 -1 2 C-0.67 1.34 -0.34 0.68 0 0 Z " fill="#353535" transform="translate(330,246)"/>
<path d="M0 0 C0.33 0 0.66 0 1 0 C1 2.64 1 5.28 1 8 C0.34 8 -0.32 8 -1 8 C-2.21693876 10.43387753 -2.31959896 12.41838846 -2.5625 15.125 C-2.68818359 16.49011719 -2.68818359 16.49011719 -2.81640625 17.8828125 C-2.87699219 18.58148438 -2.93757813 19.28015625 -3 20 C-3.33 20 -3.66 20 -4 20 C-4 15.05 -4 10.1 -4 5 C-3.01 5.33 -2.02 5.66 -1 6 C-0.67 4.02 -0.34 2.04 0 0 Z " fill="#D9D9D9" transform="translate(419,237)"/>
<path d="M0 0 C3.36591866 1.44253657 5.51047079 3.33264727 8 6 C4.20442119 6 2.37097383 5.49821059 -1 4 C-0.67 2.68 -0.34 1.36 0 0 Z " fill="#3A3A3A" transform="translate(851,367)"/>
<path d="M0 0 C3.94794145 1.67028292 6.81796118 4.1795565 10 7 C10 7.33 10 7.66 10 8 C8.35 8 6.7 8 5 8 C4.938125 7.38125 4.87625 6.7625 4.8125 6.125 C4.171081 3.72238859 4.171081 3.72238859 1.4375 2.75 C0.633125 2.5025 -0.17125 2.255 -1 2 C-0.67 1.34 -0.34 0.68 0 0 Z " fill="#424242" transform="translate(725,360)"/>
<path d="M0 0 C0 1.65 0 3.3 0 5 C-0.66 5 -1.32 5 -2 5 C-2.66 6.32 -3.32 7.64 -4 9 C-4.33 8.34 -4.66 7.68 -5 7 C-5.99 6.67 -6.98 6.34 -8 6 C-6.85675161 4.9970458 -5.71032809 3.99770973 -4.5625 3 C-3.92441406 2.443125 -3.28632812 1.88625 -2.62890625 1.3125 C-1 0 -1 0 0 0 Z " fill="#E6E6E6" transform="translate(607,438)"/>
<path d="M0 0 C1.65 0.33 3.3 0.66 5 1 C4.04578192 2.14926266 3.08647955 3.29430541 2.125 4.4375 C1.59132813 5.07558594 1.05765625 5.71367187 0.5078125 6.37109375 C-1 8 -1 8 -3 9 C-2.44271087 5.65626525 -1.64826111 2.96687001 0 0 Z " fill="#E4E4E4" transform="translate(499,364)"/>
<path d="M0 0 C2 3 2 3 1.625 5.1875 C1.41875 5.785625 1.2125 6.38375 1 7 C1.66 7.33 2.32 7.66 3 8 C2.01 9.485 2.01 9.485 1 11 C-0.32 10.67 -1.64 10.34 -3 10 C-2.25 3.375 -2.25 3.375 0 0 Z " fill="#3E3E3E" transform="translate(453,276)"/>
<path d="M0 0 C0.33 0.99 0.66 1.98 1 3 C-0.4375 5.1875 -0.4375 5.1875 -2 7 C-3.32 6.34 -4.64 5.68 -6 5 C-6 4.01 -6 3.02 -6 2 C-5.38125 1.855625 -4.7625 1.71125 -4.125 1.5625 C-1.96741678 1.06847775 -1.96741678 1.06847775 0 0 Z " fill="#3D3D3D" transform="translate(382,219)"/>
<path d="M0 0 C0.89203125 0.01804687 1.7840625 0.03609375 2.703125 0.0546875 C3.71632813 0.08949219 3.71632813 0.08949219 4.75 0.125 C4.75 0.455 4.75 0.785 4.75 1.125 C1.67382812 1.41796875 1.67382812 1.41796875 -1.40234375 1.7109375 C-2.01207031 1.84757812 -2.62179687 1.98421875 -3.25 2.125 C-3.58 2.785 -3.91 3.445 -4.25 4.125 C-6.89860427 4.71855614 -9.54197322 4.86709269 -12.25 5.125 C-8.55714116 1.06285527 -5.48009547 -0.14421304 0 0 Z " fill="#656565" transform="translate(831.25,359.875)"/>
<path d="M0 0 C2 3 2 3 1.75 5.5625 C1 8 1 8 -1 10 C-2.1875 7.8125 -2.1875 7.8125 -3 5 C-1.625 2.1875 -1.625 2.1875 0 0 Z " fill="#E9E9E9" transform="translate(372,254)"/>
<path d="M0 0 C0.66 0 1.32 0 2 0 C2.696553 1.95513161 3.38199565 3.91422476 4.0625 5.875 C4.44535156 6.96554687 4.82820313 8.05609375 5.22265625 9.1796875 C6 12 6 12 5 14 C4.34 12.02 3.68 10.04 3 8 C2.34 8 1.68 8 1 8 C0.67 5.36 0.34 2.72 0 0 Z " fill="#5F5F5F" transform="translate(320,383)"/>
<path d="M0 0 C0.66 0 1.32 0 2 0 C2.3125 2.75 2.3125 2.75 2 6 C-0.5 8.375 -0.5 8.375 -3 10 C-3.66 9.67 -4.32 9.34 -5 9 C-3.35 6.03 -1.7 3.06 0 0 Z " fill="#434343" transform="translate(379,374)"/>
<path d="M0 0 C2.475 0.495 2.475 0.495 5 1 C7.27678571 9.03571429 7.27678571 9.03571429 6 13 C6 12.34 6 11.68 6 11 C5.34 11 4.68 11 4 11 C3.96261719 10.37351562 3.92523438 9.74703125 3.88671875 9.1015625 C3.82097656 8.28429687 3.75523437 7.46703125 3.6875 6.625 C3.62949219 5.81289063 3.57148438 5.00078125 3.51171875 4.1640625 C3.17009472 1.62078662 3.17009472 1.62078662 0 0 Z " fill="#C4C4C4" transform="translate(332,349)"/>
<path d="M0 0 C0.59748047 0.73669922 0.59748047 0.73669922 1.20703125 1.48828125 C3.5121755 3.43183425 4.7196719 3.316536 7.6875 3.1875 C8.89986328 3.14689453 8.89986328 3.14689453 10.13671875 3.10546875 C10.75160156 3.07066406 11.36648438 3.03585937 12 3 C11.67 3.66 11.34 4.32 11 5 C9.0085944 5.38133299 7.00720923 5.71325582 5 6 C4.01 6.495 4.01 6.495 3 7 C2.01 6.67 1.02 6.34 0 6 C0 4.02 0 2.04 0 0 Z " fill="#D4D4D4" transform="translate(516,274)"/>
<path d="M0 0 C0.99 0.33 1.98 0.66 3 1 C2.67 2.98 2.34 4.96 2 7 C1.01 7 0.02 7 -1 7 C-1.33 5.02 -1.66 3.04 -2 1 C-1.34 0.67 -0.68 0.34 0 0 Z " fill="#EFEFEF" transform="translate(376,268)"/>
<path d="M0 0 C0.66 1.32 1.32 2.64 2 4 C2.99 4 3.98 4 5 4 C4.34 6.31 3.68 8.62 3 11 C2.34 11 1.68 11 1 11 C0.67 7.37 0.34 3.74 0 0 Z " fill="#EBEBEB" transform="translate(390,259)"/>
<path d="M0 0 C0.78375 0.04125 1.5675 0.0825 2.375 0.125 C2.705 0.785 3.035 1.445 3.375 2.125 C2.385 3.445 1.395 4.765 0.375 6.125 C-1.275 4.805 -2.925 3.485 -4.625 2.125 C-2.625 0.125 -2.625 0.125 0 0 Z " fill="#3F3F3F" transform="translate(404.625,223.875)"/>
<path d="M0 0 C2.64 0.33 5.28 0.66 8 1 C8.33 2.32 8.66 3.64 9 5 C6.69 5 4.38 5 2 5 C2.33 4.34 2.66 3.68 3 3 C2.01 2.01 1.02 1.02 0 0 Z " fill="#F6F6F6" transform="translate(436,278)"/>
<path d="M0 0 C1.65 1.65 3.3 3.3 5 5 C4.01 5.33 3.02 5.66 2 6 C1.67 6.66 1.34 7.32 1 8 C-0.32 7.34 -1.64 6.68 -3 6 C-2 3 -2 3 0 0 Z " fill="#E5E5E5" transform="translate(398,274)"/>
<path d="M0 0 C1.65 0 3.3 0 5 0 C2.19195732 2.96404505 -0.18315774 5.44499019 -4 7 C-4.33 5.68 -4.66 4.36 -5 3 C-3.35 2.67 -1.7 2.34 0 2 C0 1.34 0 0.68 0 0 Z " fill="#F2F2F2" transform="translate(521,220)"/>
<path d="M0 0 C1.32 0 2.64 0 4 0 C3.75 1.875 3.75 1.875 3 4 C1.1875 5.3125 1.1875 5.3125 -1 6 C-3.25 5.625 -3.25 5.625 -5 5 C-4.360625 4.731875 -3.72125 4.46375 -3.0625 4.1875 C-0.66868314 3.11332248 -0.66868314 3.11332248 0 0 Z " fill="#414141" transform="translate(444,273)"/>
<path d="M0 0 C0.66 0.33 1.32 0.66 2 1 C1 4 1 4 0 5 C0.99 5 1.98 5 3 5 C2.625 6.9375 2.625 6.9375 2 9 C1.01 9.495 1.01 9.495 0 10 C0.33 8.68 0.66 7.36 1 6 C0.01 5.67 -0.98 5.34 -2 5 C-1.125 1.125 -1.125 1.125 0 0 Z " fill="#F3F3F3" transform="translate(879,434)"/>
<path d="M0 0 C0.33 0.99 0.66 1.98 1 3 C-4.625 8 -4.625 8 -8 8 C-8 7.34 -8 6.68 -8 6 C-7.4225 5.7525 -6.845 5.505 -6.25 5.25 C-3.6997003 3.83316683 -1.98214299 2.12372463 0 0 Z " fill="#3D3D3D" transform="translate(448,387)"/>
<path d="M0 0 C0.99 0.33 1.98 0.66 3 1 C1.66666667 4.33333333 0.33333333 7.66666667 -1 11 C-1.33 11 -1.66 11 -2 11 C-2.25 3.375 -2.25 3.375 0 0 Z " fill="#434343" transform="translate(421,362)"/>
<path d="M0 0 C0.99 0 1.98 0 3 0 C2.67 1.65 2.34 3.3 2 5 C0.35 5.33 -1.3 5.66 -3 6 C-1.125 1.125 -1.125 1.125 0 0 Z " fill="#E8E8E8" transform="translate(544,454)"/>
<path d="M0 0 C0 1.65 0 3.3 0 5 C-0.33 4.34 -0.66 3.68 -1 3 C-1.763125 3.515625 -2.52625 4.03125 -3.3125 4.5625 C-4.199375 5.036875 -5.08625 5.51125 -6 6 C-6.99 5.67 -7.98 5.34 -9 5 C-2.87096774 0 -2.87096774 0 0 0 Z " fill="#4B4B4B" transform="translate(454,413)"/>
<path d="M0 0 C2.00720923 0.28674418 4.0085944 0.61866701 6 1 C6 2.98 6 4.96 6 7 C1.32307692 5.52307692 1.32307692 5.52307692 -0.3125 2.875 C-0.539375 2.25625 -0.76625 1.6375 -1 1 C-0.67 0.67 -0.34 0.34 0 0 Z " fill="#E2E2E2" transform="translate(871,384)"/>
<path d="M0 0 C2.64 0.33 5.28 0.66 8 1 C7.67 1.99 7.34 2.98 7 4 C5.35 4.33 3.7 4.66 2 5 C1.34 3.35 0.68 1.7 0 0 Z " fill="#E7E7E7" transform="translate(443,278)"/>
<path d="M0 0 C0.66 0.33 1.32 0.66 2 1 C-2.30769231 6.78461538 -2.30769231 6.78461538 -5.8125 7.875 C-6.8953125 7.936875 -6.8953125 7.936875 -8 8 C-5.33333333 5.33333333 -2.66666667 2.66666667 0 0 Z " fill="#454545" transform="translate(675,411)"/>
<path d="M0 0 C0.99 0.33 1.98 0.66 3 1 C3.33 2.65 3.66 4.3 4 6 C3.67 5.34 3.34 4.68 3 4 C-0.16666667 5.83333333 -0.16666667 5.83333333 -2 9 C-1.125 1.125 -1.125 1.125 0 0 Z " fill="#E2E2E2" transform="translate(392,231)"/>
<path d="M0 0 C5.53846154 0.61538462 5.53846154 0.61538462 7.875 2.5625 C8.431875 3.2740625 8.431875 3.2740625 9 4 C8.67 4.66 8.34 5.32 8 6 C4.5625 4.6875 4.5625 4.6875 1 3 C0.67 2.01 0.34 1.02 0 0 Z " fill="#444444" transform="translate(521,224)"/>
<path d="M0 0 C3.3 0.33 6.6 0.66 10 1 C5.78370866 3.10814567 3.60209225 3.17700355 -1 3 C-0.67 2.01 -0.34 1.02 0 0 Z " fill="#414141" transform="translate(682,452)"/>
<path d="M0 0 C0 0.66 0 1.32 0 2 C-2.375 3.6875 -2.375 3.6875 -5 5 C-5.66 4.67 -6.32 4.34 -7 4 C-6.6875 2.0625 -6.6875 2.0625 -6 0 C-3 -1 -3 -1 0 0 Z " fill="#E2E2E2" transform="translate(674,365)"/>
<path d="M0 0 C1.32 0.66 2.64 1.32 4 2 C2.68 3.32 1.36 4.64 0 6 C-0.99 5.67 -1.98 5.34 -3 5 C-2.67 4.01 -2.34 3.02 -2 2 C-1.34 2 -0.68 2 0 2 C0 1.34 0 0.68 0 0 Z " fill="#3A3A3A" transform="translate(320,348)"/>
<path d="M0 0 C1.65 0.33 3.3 0.66 5 1 C4.67 2.65 4.34 4.3 4 6 C3.34 5.01 2.68 4.02 2 3 C1.67 3.33 1.34 3.66 1 4 C-0.99958364 4.04080783 -3.00045254 4.04254356 -5 4 C-5 3.67 -5 3.34 -5 3 C-3.35 3 -1.7 3 0 3 C0 2.01 0 1.02 0 0 Z " fill="#575757" transform="translate(384,279)"/>
<path d="M0 0 C0.66 1.32 1.32 2.64 2 4 C1.67 4.33 1.34 4.66 1 5 C0.63239269 7.32817964 0.29758419 9.6618385 0 12 C-2 9 -2 9 -3 6 C-1.5625 2.8125 -1.5625 2.8125 0 0 Z " fill="#E0E0E0" transform="translate(379,270)"/>
<path d="M0 0 C2.29013653 3.4352048 2.17842973 4.985331 2 9 C0.66666667 9 -0.66666667 9 -2 9 C-2.20140476 5.37471432 -1.85776765 3.13498292 0 0 Z " fill="#282828" transform="translate(334,232)"/>
<path d="M0 0 C2 3 2 3 2 5 C-1.68754757 4.50168276 -3.60490662 3.89932357 -6 1 C-3.03 1.495 -3.03 1.495 0 2 C0 1.34 0 0.68 0 0 Z " fill="#DADADA" transform="translate(758,473)"/>
<path d="M0 0 C0.66 0.33 1.32 0.66 2 1 C1.67 2.32 1.34 3.64 1 5 C0.01 4.67 -0.98 4.34 -2 4 C-2 3.34 -2 2.68 -2 2 C-1.34 2 -0.68 2 0 2 C0 1.34 0 0.68 0 0 Z M-5 5 C-3.35 5 -1.7 5 0 5 C0 5.66 0 6.32 0 7 C-1.65 7 -3.3 7 -5 7 C-5 6.34 -5 5.68 -5 5 Z " fill="#F5F5F5" transform="translate(660,454)"/>
<path d="M0 0 C0.66 0 1.32 0 2 0 C3.61949011 2.57213134 4.04408751 3.67669159 3.625 6.75 C3.41875 7.4925 3.2125 8.235 3 9 C2.67 9 2.34 9 2 9 C2 7.35 2 5.7 2 4 C1.01 3.67 0.02 3.34 -1 3 C-0.67 2.01 -0.34 1.02 0 0 Z " fill="#434343" transform="translate(873,392)"/>
<path d="M0 0 C0.66 0.33 1.32 0.66 2 1 C0.875 2.9375 0.875 2.9375 -1 5 C-4.1875 5.75 -4.1875 5.75 -7 6 C-4.74259377 3.66475218 -2.7194239 1.81294927 0 0 Z " fill="#DADADA" transform="translate(672,387)"/>
<path d="M0 0 C0.33 0.99 0.66 1.98 1 3 C-0.65 4.32 -2.3 5.64 -4 7 C-3.67 5.02 -3.34 3.04 -3 1 C-2.01 0.67 -1.02 0.34 0 0 Z " fill="#E0E0E0" transform="translate(867,456)"/>
<path d="M0 0 C0.66 0 1.32 0 2 0 C2.33 1.32 2.66 2.64 3 4 C1.68 4.99 0.36 5.98 -1 7 C-2 4 -2 4 -1.0625 1.8125 C-0.5365625 0.9153125 -0.5365625 0.9153125 0 0 Z " fill="#E6E6E6" transform="translate(662,417)"/>
<path d="M0 0 C0.99 0.33 1.98 0.66 3 1 C2.34 1 1.68 1 1 1 C1 1.99 1 2.98 1 4 C-1.97 4 -4.94 4 -8 4 C-8 3.67 -8 3.34 -8 3 C-7.05125 2.690625 -6.1025 2.38125 -5.125 2.0625 C-2.13919592 1.12605258 -2.13919592 1.12605258 0 0 Z " fill="#E9E9E9" transform="translate(331,221)"/>
<path d="M0 0 C2.5625 2.25 2.5625 2.25 5 5 C4.8125 7.3125 4.8125 7.3125 4 9 C0 4.5 0 4.5 0 0 Z " fill="#404040" transform="translate(729,166)"/>
<path d="M0 0 C0.99 0 1.98 0 3 0 C2.67 2.64 2.34 5.28 2 8 C0 6 0 6 -0.125 2.875 C-0.08375 1.92625 -0.0425 0.9775 0 0 Z " fill="#2A2A2A" transform="translate(761,472)"/>
<path d="M0 0 C1.65 0 3.3 0 5 0 C3.02 2.97 3.02 2.97 1 6 C0.01 5.67 -0.98 5.34 -2 5 C-1.34 3.35 -0.68 1.7 0 0 Z " fill="#F5F5F5" transform="translate(570,465)"/>
<path d="M0 0 C0.66 1.32 1.32 2.64 2 4 C0.625 5.5 0.625 5.5 -1 7 C-1.66 7 -2.32 7 -3 7 C-1.125 1.125 -1.125 1.125 0 0 Z " fill="#434343" transform="translate(657,430)"/>
<path d="M0 0 C2.475 0.495 2.475 0.495 5 1 C5 1.66 5 2.32 5 3 C6.32 3.66 7.64 4.32 9 5 C6 6 6 6 3 5 C2.67 4.34 2.34 3.68 2 3 C1.34 2.01 0.68 1.02 0 0 Z " fill="#4F4F4F" transform="translate(842,362)"/>
<path d="M0 0 C-0.33 1.98 -0.66 3.96 -1 6 C-2.32 5.34 -3.64 4.68 -5 4 C-5 3.34 -5 2.68 -5 2 C-2 0 -2 0 0 0 Z " fill="#3A3A3A" transform="translate(464,362)"/>
<path d="M0 0 C2.97 0.495 2.97 0.495 6 1 C4.9375 2.5625 4.9375 2.5625 3 4 C-0.6875 3.6875 -0.6875 3.6875 -4 3 C-2.68 2.67 -1.36 2.34 0 2 C0 1.34 0 0.68 0 0 Z " fill="#454545" transform="translate(439,330)"/>
<path d="M0 0 C1.65 0 3.3 0 5 0 C4.0022242 2.99332739 3.2477975 3.94766315 1 6 C0.67 4.02 0.34 2.04 0 0 Z " fill="#E8E8E8" transform="translate(531,268)"/>
<path d="M0 0 C0.66 0 1.32 0 2 0 C2.33 0.99 2.66 1.98 3 3 C1.68 4.32 0.36 5.64 -1 7 C-1.625 5.1875 -1.625 5.1875 -2 3 C-1.34 2.01 -0.68 1.02 0 0 Z " fill="#383838" transform="translate(378,259)"/>
<path d="M0 0 C0.66 0.33 1.32 0.66 2 1 C0.35 2.65 -1.3 4.3 -3 6 C-3.66 5.01 -4.32 4.02 -5 3 C-2.625 1.4375 -2.625 1.4375 0 0 Z " fill="#444444" transform="translate(443,462)"/>
<path d="M0 0 C0.99 0.33 1.98 0.66 3 1 C2.67 1.99 2.34 2.98 2 4 C-0.5625 5.1875 -0.5625 5.1875 -3 6 C-3 5.01 -3 4.02 -3 3 C-2.01 3 -1.02 3 0 3 C0 2.01 0 1.02 0 0 Z " fill="#434343" transform="translate(863,451)"/>
<path d="M0 0 C0.66 0 1.32 0 2 0 C2 1.65 2 3.3 2 5 C1.38125 5.144375 0.7625 5.28875 0.125 5.4375 C-2.03258322 5.93152225 -2.03258322 5.93152225 -4 7 C-2.79618552 4.50638429 -1.54571278 2.31856917 0 0 Z " fill="#F5F5F5" transform="translate(521,449)"/>
<path d="M0 0 C0.33 0.66 0.66 1.32 1 2 C1.66 2 2.32 2 3 2 C2.67 3.32 2.34 4.64 2 6 C0.35 5.67 -1.3 5.34 -3 5 C-2.01 3.35 -1.02 1.7 0 0 Z " fill="#373737" transform="translate(611,423)"/>
<path d="M0 0 C1.9375 0.3125 1.9375 0.3125 4 1 C4.33 1.99 4.66 2.98 5 4 C3.68 3.67 2.36 3.34 1 3 C0.67 3.99 0.34 4.98 0 6 C0 4.02 0 2.04 0 0 Z " fill="#D9D9D9" transform="translate(542,394)"/>
<path d="M0 0 C1.32 0.66 2.64 1.32 4 2 C3.34 3.65 2.68 5.3 2 7 C0.4375 5.75 0.4375 5.75 -1 4 C-0.6875 1.8125 -0.6875 1.8125 0 0 Z " fill="#373737" transform="translate(506,349)"/>
<path d="M0 0 C0.66 0.33 1.32 0.66 2 1 C1.34 2.98 0.68 4.96 0 7 C-0.99 6.67 -1.98 6.34 -3 6 C-2.01 4.02 -1.02 2.04 0 0 Z " fill="#EFEFEF" transform="translate(528,276)"/>
</svg>
